<svg width="41" height="37" viewBox="0 0 41 37" fill="none" xmlns="http://www.w3.org/2000/svg">
<path d="M40.5879 8.61374L35.7192 4.87187C35.3884 4.66002 35.0286 4.49681 34.6511 4.38727C34.2752 4.2659 33.8838 4.19843 33.4888 4.18689H19.475L21.117 14.4106H33.4888C33.825 14.4106 34.2453 14.3349 34.6491 14.2102C35.053 14.0855 35.4425 13.9137 35.7172 13.7276L40.5859 9.98167C40.8626 9.7956 41 9.54819 41 9.29873C41 9.04927 40.8626 8.80186 40.5879 8.61374ZM17.425 0.0974121H15.375C15.1032 0.0974121 14.8424 0.205126 14.6502 0.396857C14.458 0.588588 14.35 0.848632 14.35 1.11978V8.27636H7.5112C7.1709 8.27636 6.7527 8.35201 6.34885 8.47879C5.94295 8.60147 5.5555 8.77119 5.2808 8.96135L0.41205 12.7032C0.1353 12.8893 0 13.1387 0 13.3882C0 13.6356 0.1353 13.883 0.41205 14.0732L5.2808 17.8191C5.5555 18.0052 5.94295 18.177 6.34885 18.2997C6.7527 18.4244 7.1709 18.5 7.5112 18.5H14.35V35.8803C14.35 36.1515 14.458 36.4115 14.6502 36.6032C14.8424 36.795 15.1032 36.9027 15.375 36.9027H17.425C17.6968 36.9027 17.9576 36.795 18.1498 36.6032C18.342 36.4115 18.45 36.1515 18.45 35.8803V1.11978C18.45 0.848632 18.342 0.588588 18.1498 0.396857C17.9576 0.205126 17.6968 0.0974121 17.425 0.0974121Z" fill="#BB7A3B"/>
</svg>
