<svg width="38" height="26" viewBox="0 0 38 26" fill="none" xmlns="http://www.w3.org/2000/svg">
<path d="M1.3055 3.10062L17.0555 11.5615C17.5847 11.845 18.2693 11.9794 18.9581 11.9794C19.6469 11.9794 20.3315 11.845 20.8607 11.5615L36.6107 3.10062C37.6376 2.54832 38.6078 0.400024 36.7241 0.400024H1.1942C-0.689499 0.400024 0.280701 2.54832 1.3055 3.10062ZM37.0874 7.72692L20.8607 16.1836C20.1467 16.5574 19.6469 16.6015 18.9581 16.6015C18.2693 16.6015 17.7695 16.5574 17.0555 16.1836C16.3415 15.8098 2.0762 8.33172 0.910701 7.72482C0.0917011 7.29642 0.100101 7.79832 0.100101 8.18472V23.5C0.100101 24.382 1.2887 25.6 2.2001 25.6H35.8001C36.7115 25.6 37.9001 24.382 37.9001 23.5V8.18682C37.9001 7.80042 37.9085 7.29852 37.0874 7.72692Z" fill="#BB7A3B"/>
</svg>
