<svg width="34" height="34" viewBox="0 0 34 34" fill="none" xmlns="http://www.w3.org/2000/svg">
<path d="M24.2061 20.3056C24.3383 19.2148 24.4374 18.124 24.4374 17.0001C24.4374 15.8762 24.3383 14.7853 24.2061 13.6945H29.7924C30.0569 14.7523 30.2222 15.8597 30.2222 17.0001C30.2222 18.1405 30.0569 19.2478 29.7924 20.3056H24.2061ZM21.2806 29.4951C22.2723 27.6605 23.0326 25.6772 23.5615 23.6112H28.4372C26.8359 26.3685 24.2955 28.4571 21.2806 29.4951ZM20.8674 20.3056H13.1324C12.9672 19.2148 12.868 18.124 12.868 17.0001C12.868 15.8762 12.9672 14.7688 13.1324 13.6945H20.8674C21.0162 14.7688 21.1319 15.8762 21.1319 17.0001C21.1319 18.124 21.0162 19.2148 20.8674 20.3056ZM16.9999 30.1562C15.6281 28.1728 14.5208 25.9747 13.8431 23.6112H20.1568C19.4791 25.9747 18.3718 28.1728 16.9999 30.1562ZM10.3888 10.389H5.56272C7.1475 7.62421 9.68607 5.53225 12.7027 4.50507C11.7111 6.33965 10.9673 8.32299 10.3888 10.389ZM5.56272 23.6112H10.3888C10.9673 25.6772 11.7111 27.6605 12.7027 29.4951C9.69239 28.4566 7.1574 26.3675 5.56272 23.6112ZM4.20745 20.3056C3.943 19.2478 3.77772 18.1405 3.77772 17.0001C3.77772 15.8597 3.943 14.7523 4.20745 13.6945H9.79383C9.66161 14.7853 9.56245 15.8762 9.56245 17.0001C9.56245 18.124 9.66161 19.2148 9.79383 20.3056H4.20745ZM16.9999 3.82743C18.3718 5.81076 19.4791 8.02549 20.1568 10.389H13.8431C14.5208 8.02549 15.6281 5.81076 16.9999 3.82743ZM28.4372 10.389H23.5615C23.0442 8.34192 22.2782 6.36592 21.2806 4.50507C24.3218 5.54632 26.8505 7.64535 28.4372 10.389ZM16.9999 0.47229C7.86009 0.47229 0.472168 7.90979 0.472168 17.0001C0.472168 21.3835 2.21348 25.5874 5.31304 28.687C6.84779 30.2217 8.6698 31.4391 10.675 32.2697C12.6803 33.1003 14.8295 33.5278 16.9999 33.5278C21.3834 33.5278 25.5873 31.7865 28.6869 28.687C31.7864 25.5874 33.5277 21.3835 33.5277 17.0001C33.5277 14.8296 33.1002 12.6804 32.2696 10.6752C31.439 8.66992 30.2216 6.84791 28.6869 5.31316C27.1521 3.77842 25.3301 2.56099 23.3249 1.73039C21.3196 0.899794 19.1704 0.47229 16.9999 0.47229Z" fill="#BB7A3B"/>
</svg>
