<svg width="40" height="40" viewBox="0 0 40 40" fill="none" xmlns="http://www.w3.org/2000/svg">
<path d="M35.6667 18.9145H39.8333C39.8333 8.22704 31.7646 0.166626 21.0625 0.166626V4.33329C29.525 4.33329 35.6667 10.4645 35.6667 18.9145Z" fill="#BB7A3B"/>
<path d="M21.0834 12.6667C25.4647 12.6667 27.3334 14.5355 27.3334 18.9167H31.5001C31.5001 12.198 27.8022 8.50005 21.0834 8.50005V12.6667ZM28.2126 24.0063C27.8123 23.6425 27.2862 23.4484 26.7455 23.4651C26.2048 23.4818 25.6918 23.708 25.3147 24.0959L20.3293 29.223C19.1293 28.9938 16.7168 28.2417 14.2334 25.7646C11.7501 23.2792 10.998 20.8605 10.7751 19.6688L15.898 14.6813C16.2864 14.3045 16.5129 13.7913 16.5296 13.2505C16.5463 12.7096 16.3519 12.1835 15.9876 11.7834L8.28968 3.3188C7.92519 2.91746 7.4186 2.67402 6.8775 2.64017C6.3364 2.60633 5.80343 2.78476 5.39177 3.13755L0.870933 7.01463C0.510748 7.37612 0.295765 7.85724 0.266766 8.36672C0.235516 8.88755 -0.360317 21.225 9.20635 30.7959C17.5522 39.1396 28.0063 39.75 30.8855 39.75C31.3063 39.75 31.5647 39.7375 31.6334 39.7334C32.1428 39.7049 32.6237 39.4889 32.9834 39.1271L36.8584 34.6042C37.2115 34.1928 37.3903 33.66 37.3568 33.1189C37.3234 32.5778 37.0803 32.0711 36.6793 31.7063L28.2126 24.0063Z" fill="#BB7A3B"/>
</svg>
